<svg width="0" height="0" class="hidden">

	<symbol xmlns="http://www.w3.org/2000/svg" viewBox="0 0 55 55" id="play"><path d="M27.5 55a27.5 27.5 0 100-55 27.5 27.5 0 000 55z" fill="#fff"/><path d="M31.8 27.5l-6.4-3.9v7.8l6.4-3.9zm5.8 0a2 2 0 01-1 1.7l-12.2 7.5a2 2 0 01-3-1.8V20.1a2 2 0 013-1.8l12.3 7.5c.6.4 1 1 1 1.7z"/></symbol>

	<symbol xmlns="http://www.w3.org/2000/svg" viewBox="0 0 42 42" id="play-reverse"><path d="M21 42a21 21 0 100-42 21 21 0 000 42z" fill="#fff"/><path d="M17.78 21L23 24.17v-6.34L17.78 21zm-3.93 0c0-.66.32-1.32.97-1.71l8.14-4.95A2 2 0 0126 16.05v9.9a2 2 0 01-3.04 1.7l-8.14-4.94a1.98 1.98 0 01-.97-1.71z"/></symbol>

	<symbol xmlns="http://www.w3.org/2000/svg" viewBox="0 0 42 42" id="calendar"><path d="M21 42a21 21 0 100-42 21 21 0 000 42z" fill="#fff"/><path fill-rule="evenodd" clip-rule="evenodd" d="M11.63 17.79h18.74a.54.54 0 01.54.54v10.41a.54.54 0 01-.54.54H11.63a.54.54 0 01-.54-.54V18.33a.54.54 0 01.54-.54zm-1.32-5.85h2.5v1.28a2.15 2.15 0 104.3 0v-1.28h7.78v1.28a2.15 2.15 0 104.3 0v-1.28h2.5a1.32 1.32 0 011.3 1.32v16.79a1.32 1.32 0 01-1.3 1.31H10.3A1.32 1.32 0 019 30.05v-16.8a1.32 1.32 0 011.31-1.3z"/><path fill-rule="evenodd" clip-rule="evenodd" d="M13.6 19.59h2.98a.14.14 0 01.14.13v2.98a.14.14 0 01-.14.14H13.6a.14.14 0 01-.13-.14v-2.98a.14.14 0 01.13-.13"/><path fill-rule="evenodd" clip-rule="evenodd" d="M19.47 19.59h2.98a.14.14 0 01.14.13v2.98a.14.14 0 01-.14.14h-2.98a.14.14 0 01-.14-.14v-2.98a.14.14 0 01.14-.13"/><path fill-rule="evenodd" clip-rule="evenodd" d="M25.41 19.59h2.98a.14.14 0 01.14.13v2.98a.14.14 0 01-.14.14h-2.98a.14.14 0 01-.13-.14v-2.98a.14.14 0 01.13-.13"/><path fill-rule="evenodd" clip-rule="evenodd" d="M13.6 24.2h2.98a.14.14 0 01.14.14v2.97a.14.14 0 01-.14.14H13.6a.14.14 0 01-.13-.14v-2.97a.14.14 0 01.13-.14"/><path fill-rule="evenodd" clip-rule="evenodd" d="M19.47 24.2h2.98a.14.14 0 01.14.14v2.97a.14.14 0 01-.14.14h-2.98a.14.14 0 01-.14-.14v-2.97a.14.14 0 01.14-.14"/><path fill-rule="evenodd" clip-rule="evenodd" d="M25.41 24.2h2.98a.14.14 0 01.14.14v2.97a.14.14 0 01-.14.14h-2.98a.14.14 0 01-.13-.14v-2.97a.14.14 0 01.13-.14"/><path fill-rule="evenodd" clip-rule="evenodd" d="M14.96 9a1.53 1.53 0 011.53 1.53v2.7a1.53 1.53 0 01-2.6 1.07 1.53 1.53 0 01-.46-1.07v-2.7A1.53 1.53 0 0114.96 9"/><path fill-rule="evenodd" clip-rule="evenodd" d="M27.04 9a1.53 1.53 0 011.53 1.53v2.7a1.53 1.53 0 01-1.53 1.52 1.53 1.53 0 01-1.53-1.52v-2.7A1.53 1.53 0 0127.04 9z"/></symbol>
</svg>